<?xml version="1.0" standalone="no"?>
<!DOCTYPE svg PUBLIC "-//W3C//DTD SVG 1.1//EN" "http://www.w3.org/Graphics/SVG/1.1/DTD/svg11.dtd" >
<svg xmlns="http://www.w3.org/2000/svg" xmlns:xlink="http://www.w3.org/1999/xlink" version="1.1">
<metadata>
Created by FontForge 20170731 at Mon Jan 22 14:40:42 2018
 By Aleksey,,,
Copyright (c) 2018 by Lucas Le Bihan. All rights reserved. Use of this font software is subject to compliance to a license agreement.
</metadata>
<defs>
<font id="SelfModernTrial-Text" horiz-adv-x="600" >
  <font-face 
    font-family="Self Modern Text"
    font-weight="400"
    font-stretch="normal"
    units-per-em="1000"
    panose-1="2 0 0 0 0 0 0 0 0 0"
    ascent="780"
    descent="-220"
    x-height="500"
    cap-height="780"
    bbox="-70 -250 1020 1021"
    underline-thickness="26"
    underline-position="-152"
    unicode-range="U+0026-2019"
  />
<missing-glyph horiz-adv-x="364" 
d="M33 0v666h265v-666h-265zM66 33h199v600h-199v-600z" />
    <glyph glyph-name=".notdef" horiz-adv-x="364" 
d="M33 0v666h265v-666h-265zM66 33h199v600h-199v-600z" />
    <glyph glyph-name=".null" horiz-adv-x="0" 
 />
    <glyph glyph-name="nonmarkingreturn" horiz-adv-x="333" 
 />
    <glyph glyph-name="ampersand" unicode="&#x26;" horiz-adv-x="700" 
d="M394 305l-14 25l300 150l13 -25l-162 -80q50 -17 84.5 -57.5t34.5 -107.5q0 -93 -80.5 -156.5t-212.5 -63.5q-148 0 -232.5 60.5t-84.5 159.5q0 37 12 68.5t30.5 52t42.5 37t46.5 25.5t43 14.5t31.5 7.5t14 2v4h-2q-108 16 -157 82q-31 42 -31 98q0 82 59.5 135.5
t179.5 53.5q53 0 99.5 -14t51.5 -14q13 0 50 28h10l82 -231l-27 -14q-14 30 -23.5 49t-33.5 52.5t-48.5 53t-64 35t-85.5 15.5q-72 0 -107 -44t-35 -116q0 -76 57 -118t126 -42h19v-30h-19q-97 0 -154.5 -44.5t-57.5 -140.5q0 -76 62 -120.5t156 -44.5q101 0 167 45.5
t66 124.5q0 60 -29 98t-61 38q-14 0 -24 -5z" />
    <glyph glyph-name="parenleft" unicode="(" horiz-adv-x="400" 
d="M420 731q-137 -24 -236.5 -153t-99.5 -328q0 -101 28.5 -188t76.5 -146.5t107 -97t124 -48.5l-10 -20q-158 32 -264 165.5t-106 334.5t106 334.5t264 165.5z" />
    <glyph glyph-name="parenright" unicode=")" horiz-adv-x="500" 
d="M40 -231q137 24 236.5 153t99.5 328q0 101 -28.5 188t-76.5 146.5t-107 97t-124 48.5l10 20q158 -32 264 -165.5t106 -334.5t-106 -334.5t-264 -165.5z" />
    <glyph glyph-name="comma" unicode="," horiz-adv-x="300" 
d="M80 50q0 30 20.5 50t49.5 20q30 0 50 -20t20 -50q0 -21 -20 -52l-115 -170h-60l141 160h-30q-24 0 -40 17.5t-16 44.5z" />
    <glyph glyph-name="hyphen" unicode="-" horiz-adv-x="400" 
d="M40 235v30h320v-30h-320z" />
    <glyph glyph-name="period" unicode="." horiz-adv-x="300" 
d="M80 60q0 30 20.5 50t49.5 20q30 0 50 -20t20 -50t-20 -50t-50 -20q-29 0 -49.5 20t-20.5 50z" />
    <glyph glyph-name="zero" unicode="0" 
d="M40 391q0 178 68 288.5t192 110.5t192 -110.5t68 -288.5q0 -179 -68 -290t-192 -111t-192 111t-68 290zM149 371q0 -169 34.5 -260t115.5 -91q47 0 78.5 30t47 88t21 121.5t5.5 151.5q0 169 -34.5 259t-115.5 90q-47 0 -78.5 -31t-47 -90t-21 -121.5t-5.5 -146.5z" />
    <glyph glyph-name="one" unicode="1" 
d="M255 120v510h-174v30h139q49 0 72 20.5t23 71.5v38h30v-670q0 -55 19.5 -72.5t92.5 -17.5h73v-30h-460v30h73q73 0 92.5 18t19.5 72z" />
    <glyph glyph-name="two" unicode="2" 
d="M135 100q-14 -16 -6.5 -23t31.5 -7h186q37 0 69 14t52.5 34t37 45t24 41.5t11.5 30.5l28 -14l-82 -221h-436v30q27 48 78 100t101.5 95.5t98 92t77 108t29.5 124.5q0 89 -44 147.5t-130 58.5q-54 0 -75 -34.5t-21 -100.5q0 -81 -61 -81q-43 0 -43 58q0 67 69.5 129.5
t180.5 62.5q105 0 168.5 -61t63.5 -160q0 -57 -23 -110t-58.5 -92.5t-82.5 -79.5t-89.5 -68.5t-86.5 -61.5t-67 -57z" />
    <glyph glyph-name="three" unicode="3" 
d="M551 210q0 -97 -77 -158.5t-196 -61.5q-211 0 -248 226l28 14q2 -11 2.5 -15t7 -27.5t14 -38.5t23.5 -38t35 -36.5t49 -24t66 -10.5q91 0 139 47t48 128q0 88 -46.5 136.5t-135.5 48.5h-64v30h64q89 0 126 38t37 122q0 70 -42 118t-112 48q-53 0 -74 -29.5t-21 -86.5
q0 -90 -61 -90q-43 0 -43 58q0 61 64 121.5t172 60.5q109 0 166.5 -54t57.5 -135q0 -43 -16 -76.5t-36.5 -51t-47 -29t-41 -14.5t-23.5 -4h-2v-4q19 -4 35 -8.5t46.5 -20.5t51.5 -37t37.5 -59.5t16.5 -86.5z" />
    <glyph glyph-name="four" unicode="4" 
d="M50 259h285v349q0 8 -1 11t-3.5 2.5t-5.5 -3.5t-8 -10zM10 210v49l401 531h14v-531h155v-49h-155v-90q0 -59 25 -74.5t110 -15.5v-30h-360v30q85 0 110 15.5t25 74.5v90h-325z" />
    <glyph glyph-name="five" unicode="5" 
d="M272 468q-59 0 -97 -29.5t-55 -60.5h-30v402h376l82 -221l-27 -14q-6 15 -11.5 26.5t-23.5 40t-38 47.5t-52.5 35t-69.5 16h-156q-50 0 -50 -40v-243q81 73 189 73q45 0 86.5 -12.5t80 -39.5t61.5 -78t23 -120q0 -110 -71.5 -185t-198.5 -75q-53 0 -95.5 15.5t-67.5 37.5
t-44.5 55.5t-28 59t-15.5 58.5l28 14q3 -16 6.5 -28.5t18 -46t33.5 -55.5t55 -41t80 -19q86 0 138.5 54t52.5 156q0 94 -48 156t-131 62z" />
    <glyph glyph-name="six" unicode="6" 
d="M352 756q-92 0 -145 -84t-57 -258q65 96 172 96q99 0 168.5 -70t69.5 -180q0 -121 -71 -195.5t-175 -74.5q-124 0 -199 100.5t-75 291.5q0 110 34.5 202t101.5 149t154 57q109 0 169.5 -62.5t60.5 -129.5q0 -58 -42 -58q-62 0 -62 81q0 67 -22.5 101t-81.5 34zM150 271
q0 -110 51 -180.5t121 -70.5q64 0 96 58.5t32 140.5q0 110 -50.5 180.5t-119.5 70.5q-66 0 -98 -58.5t-32 -140.5z" />
    <glyph glyph-name="seven" unicode="7" 
d="M29 559l82 221h444v-30q-235 -343 -235 -680q0 -80 -60 -80q-46 0 -46 60q0 142 250 629q5 10 5 14q0 17 -25 17h-193q-37 0 -69.5 -16t-52.5 -35.5t-38 -48t-23 -40t-11 -25.5z" />
    <glyph glyph-name="eight" unicode="8" 
d="M560 205q0 -99 -77 -157t-193 -58q-105 0 -177.5 53t-72.5 152q0 72 45 128t111 84q-60 31 -94 75.5t-34 118.5q0 88 61.5 138.5t161.5 50.5q102 0 165.5 -48t63.5 -141q0 -52 -35.5 -100t-90.5 -74q78 -34 122 -83.5t44 -138.5zM161 620q0 -16 3.5 -30.5t7.5 -26
t14 -23.5t17 -19.5t22 -17t23 -14.5t27.5 -13.5t27.5 -12t30.5 -12t29.5 -11.5q97 39 97 161q0 73 -45 116t-114 43q-72 0 -106 -38t-34 -102zM100 205q0 -86 55 -135.5t135 -49.5q78 0 127.5 45t49.5 125q0 31 -11 57t-25 42.5t-42.5 33t-48 24.5t-57.5 23t-55 22
q-57 -20 -92.5 -68.5t-35.5 -118.5z" />
    <glyph glyph-name="nine" unicode="9" 
d="M259 -10q-46 0 -83 16.5t-58.5 38.5t-38.5 53t-23 49.5t-11 38.5l28 14q5 -17 10.5 -32.5t20 -40.5t32.5 -42.5t48 -31t66 -13.5q189 0 199 326q-51 -96 -179 -96q-93 0 -161.5 70.5t-68.5 179.5q0 121 71 195.5t175 74.5q124 0 199 -100.5t75 -291.5q0 -112 -32 -202.5
t-101.5 -148t-167.5 -57.5zM450 509q0 110 -50.5 180.5t-119.5 70.5q-66 0 -98 -58.5t-32 -140.5q0 -110 50.5 -180.5t119.5 -70.5q66 0 98 58.5t32 140.5z" />
    <glyph glyph-name="colon" unicode=":" horiz-adv-x="300" 
d="M80 460q0 30 20.5 50t49.5 20q30 0 50 -20t20 -50t-20 -50t-50 -20q-29 0 -49.5 20t-20.5 50zM80 60q0 30 20.5 50t49.5 20q30 0 50 -20t20 -50t-20 -50t-50 -20q-29 0 -49.5 20t-20.5 50z" />
    <glyph glyph-name="A" unicode="A" horiz-adv-x="800" 
d="M280 0h-280v30q64 0 87.5 11.5t41.5 58.5l246 660l45 30h10l250 -710q11 -31 39 -40.5t81 -9.5v-30h-320v30q63 0 85.5 7t22.5 31q0 9 -5 22l-66 190h-281l-64 -180q-8 -24 -8 -38q0 -18 26 -25t90 -7v-30zM247 310h260l-128 369z" />
    <glyph glyph-name="B" unicode="B" horiz-adv-x="700" 
d="M681 205q0 -104 -80.5 -154.5t-220.5 -50.5h-360v30q90 0 112.5 15t22.5 75v540q0 60 -22.5 75t-112.5 15v30h356q80 0 141.5 -16t103 -58.5t41.5 -108.5q0 -73 -57.5 -118.5t-140.5 -63.5q217 -41 217 -210zM245 664v-238h101q91 0 148.5 40.5t57.5 128.5
q0 78 -52.5 116.5t-133.5 38.5h-19q-64 0 -83 -17t-19 -69zM245 120q0 -56 20.5 -73t96.5 -17q96 0 153 42t57 133q0 90 -59.5 140.5t-146.5 50.5h-121v-276z" />
    <glyph glyph-name="C" unicode="C" horiz-adv-x="700" 
d="M694 258q0 -7 -6.5 -32t-27.5 -66.5t-52.5 -78.5t-88.5 -64t-129 -27q-162 0 -256 112t-94 289q0 97 29 175t78.5 126t111.5 73t131 25q53 0 102.5 -14t56.5 -14q10 0 41 28h10l82 -231l-28 -14q-20 45 -39 77t-49.5 67t-72 53t-93.5 18q-123 0 -187 -102t-64 -267
q0 -157 74.5 -254t191.5 -97q40 0 75 12t58.5 27.5t44.5 42t32 44t22 46t12.5 35t5.5 22.5q1 2 1 3z" />
    <glyph glyph-name="D" unicode="D" horiz-adv-x="800" 
d="M20 750v30h370q170 0 270 -107.5t100 -281.5t-104 -282.5t-276 -108.5h-360v30q90 0 112.5 15t22.5 75v540q0 60 -22.5 75t-112.5 15zM651 391q0 177 -66.5 268t-214.5 91q-83 0 -104 -15t-21 -75v-540q0 -55 24 -72.5t111 -17.5q139 0 205 95t66 266z" />
    <glyph glyph-name="E" unicode="E" horiz-adv-x="700" 
d="M20 30q90 0 112.5 15t22.5 75v540q0 60 -22.5 75t-112.5 15v30h581l64 -195l-28 -19q-15 36 -27 59.5t-37 56.5t-61 50.5t-82 17.5h-50q-90 0 -112.5 -15t-22.5 -75v-250h135q66 0 93 25.5t27 109.5h30v-319h-30q0 67 -14.5 101.5t-37.5 43.5t-68 9h-135v-260
q0 -60 22.5 -75t112.5 -15h40q98 0 154.5 41t92.5 138l28 -14l-64 -195h-611v30z" />
    <glyph glyph-name="F" unicode="F" horiz-adv-x="700" 
d="M155 120v540q0 60 -22.5 75t-112.5 15v30h581l64 -195l-28 -14q-11 27 -20 46t-27.5 46.5t-38.5 44.5t-52 29.5t-69 12.5h-50q-90 0 -112.5 -15t-22.5 -75v-250h135q66 0 93 25.5t27 109.5h30v-319h-30q0 92 -28 123t-92 31h-135v-260q0 -60 22.5 -75t112.5 -15h40v-30
h-400v30q90 0 112.5 15t22.5 75z" />
    <glyph glyph-name="G" unicode="G" horiz-adv-x="700" 
d="M590 -10l-22 124q-74 -124 -208 -124q-146 0 -233 112.5t-87 288.5q0 172 94 285.5t236 113.5q46 0 88 -14t51 -14q10 0 41 28h10l82 -231l-28 -14q-19 47 -36 77.5t-45.5 66t-69.5 53.5t-93 18q-108 0 -164.5 -102t-56.5 -267q0 -158 66.5 -264.5t164.5 -106.5
q47 0 78.5 21.5t47.5 61t22 81.5t6 96v76h-254v30h340v-386z" />
    <glyph glyph-name="H" unicode="H" horiz-adv-x="900" 
d="M155 120v540q0 59 -25 74.5t-110 15.5v30h360v-30q-85 0 -110 -15.5t-25 -74.5v-250h410v250q0 60 -22.5 75t-112.5 15v30h360v-30q-90 0 -112.5 -15t-22.5 -75v-540q0 -59 25 -74.5t110 -15.5v-30h-360v30q85 0 110 15.5t25 74.5v260h-410v-260q0 -34 2.5 -48.5t17 -26
t39 -13.5t76.5 -2v-30h-360v30q90 0 112.5 15t22.5 75z" />
    <glyph glyph-name="I" unicode="I" horiz-adv-x="400" 
d="M155 120v540q0 60 -22.5 75t-112.5 15v30h360v-30q-90 0 -112.5 -15t-22.5 -75v-540q0 -60 22.5 -75t112.5 -15v-30h-360v30q90 0 112.5 15t22.5 75z" />
    <glyph glyph-name="J" unicode="J" horiz-adv-x="500" 
d="M365 230q0 -111 -43.5 -175.5t-131.5 -64.5q-140 0 -178 190l28 14q28 -154 127 -154q60 0 84 46t24 144v430q0 60 -22.5 75t-112.5 15v30h360v-30q-90 0 -112.5 -15t-22.5 -75v-430z" />
    <glyph glyph-name="K" unicode="K" horiz-adv-x="800" 
d="M155 120v540q0 60 -22.5 75t-112.5 15v30h360v-30q-90 0 -112.5 -15t-22.5 -75v-294l305 312q30 32 30 46q0 26 -60 26h-40v30h280v-30q-56 0 -85.5 -14.5t-70.5 -55.5l-193 -191l242 -369q27 -42 39.5 -56t38 -24t69.5 -10v-30h-320v30q54 0 77 7t23 23q0 14 -29 60
l-203 306l-103 -102v-204q0 -60 22.5 -75t112.5 -15v-30h-360v30q90 0 112.5 15t22.5 75z" />
    <glyph glyph-name="L" unicode="L" horiz-adv-x="700" 
d="M20 30q90 0 112.5 15t22.5 75v540q0 60 -22.5 75t-112.5 15v30h360v-30q-90 0 -112.5 -15t-22.5 -75v-540q0 -60 22.5 -75t112.5 -15h40q98 0 154.5 41t92.5 138l28 -14l-64 -195h-611v30z" />
    <glyph glyph-name="M" unicode="M" horiz-adv-x="1000" 
d="M252 780l236 -644l252 644h240v-30q-90 0 -112.5 -15t-22.5 -75v-540q0 -60 22.5 -75t112.5 -15v-30h-360v30q90 0 112.5 15t22.5 75v595l-284 -725h-20l-279 740v-610q0 -60 20.5 -75t99.5 -15v-30h-275v30q79 0 100 15t21 75v540q0 59 -22 74.5t-99 15.5v30h235z" />
    <glyph glyph-name="N" unicode="N" horiz-adv-x="800" 
d="M672 660v-670h-30l-460 730v-600q0 -60 21 -75t104 -15v-30h-284v30q83 0 104 15t21 75v540q0 60 -21 75t-104 15v30h229l386 -610v490q0 60 -21 75t-104 15v30h284v-30q-83 0 -104 -15t-21 -75z" />
    <glyph glyph-name="O" unicode="O" horiz-adv-x="800" 
d="M40 391q0 174 98.5 286.5t261.5 112.5t261.5 -112.5t98.5 -286.5q0 -176 -98.5 -288.5t-261.5 -112.5t-261.5 112.5t-98.5 288.5zM149 391q0 -78 15 -143.5t45.5 -117t82 -81t118.5 -29.5q113 0 177 104t64 267q0 104 -26 185t-86 132.5t-149 51.5q-112 0 -176.5 -106
t-64.5 -263z" />
    <glyph glyph-name="P" unicode="P" horiz-adv-x="700" 
d="M20 750v30h396q130 0 207.5 -49.5t77.5 -155.5q0 -107 -78 -158t-207 -51h-171v-246q0 -60 22.5 -75t112.5 -15v-30h-360v30q90 0 112.5 15t22.5 75v540q0 60 -22.5 75t-112.5 15zM245 650v-254h141q98 0 152 40t54 139q0 175 -206 175h-47q-34 0 -53.5 -4.5t-28 -19.5
t-10.5 -29.5t-2 -46.5z" />
    <glyph glyph-name="Q" unicode="Q" horiz-adv-x="800" 
d="M40 391q0 174 98.5 286.5t261.5 112.5t261.5 -112.5t98.5 -286.5q0 -184 -106 -296l106 -135l-24 -20l-104 133q-94 -83 -232 -83q-163 0 -261.5 112.5t-98.5 288.5zM149 391q0 -160 63 -260.5t188 -100.5q121 0 187 101l-141 180l24 20l134 -171q47 92 47 231
q0 160 -63 259.5t-188 99.5q-119 0 -185 -101t-66 -258z" />
    <glyph glyph-name="R" unicode="R" horiz-adv-x="700" 
d="M700 30v-30h-152l-213 376h-90v-256q0 -60 22.5 -75t112.5 -15v-30h-360v30q90 0 112.5 15t22.5 75v540q0 60 -22.5 75t-112.5 15v30h356q129 0 207 -48.5t78 -151.5q0 -87 -66.5 -137.5t-163.5 -63.5l151 -259q38 -65 55 -77.5t63 -12.5zM245 664v-258h101
q95 0 150.5 42t55.5 132q0 84 -50 127t-136 43h-19q-64 0 -83 -17t-19 -69z" />
    <glyph glyph-name="S" unicode="S" 
d="M67 235q14 -32 24 -51t27 -47.5t35.5 -45.5t43.5 -34t57.5 -25t71.5 -8q72 0 112.5 37t40.5 104q0 52 -23 88.5t-59 56.5t-80.5 36.5t-88.5 34t-80 41t-59 66.5t-23 103q0 88 56.5 143.5t157.5 55.5q44 0 86 -14t52 -14q14 0 42 28h10l82 -231l-28 -14q-17 38 -29 61
t-34.5 55.5t-45.5 50t-58 31t-77 13.5q-61 0 -97.5 -35.5t-36.5 -95.5q0 -48 23 -82.5t59.5 -54t80.5 -35.5t88 -34t80.5 -42.5t59.5 -68t23 -103.5q0 -100 -59.5 -157.5t-169.5 -57.5q-50 0 -90 14t-53 14q-3 0 -6 -0.5t-6.5 -1.5t-6 -2t-7.5 -4t-8 -5l-10.5 -7t-12.5 -8
h-10l-82 231z" />
    <glyph glyph-name="T" unicode="T" horiz-adv-x="800" 
d="M355 120v540q0 59 -15.5 74.5t-69.5 15.5h-20q-37 0 -69 -12.5t-52 -29.5t-38.5 -44.5t-27.5 -46.5t-20 -46l-28 14l64 195h642l64 -195l-28 -14q-11 27 -20 46t-27.5 46.5t-38.5 44.5t-52 29.5t-69 12.5h-20q-54 0 -69.5 -15.5t-15.5 -74.5v-540q0 -60 22.5 -75
t112.5 -15v-30h-360v30q90 0 112.5 15t22.5 75z" />
    <glyph glyph-name="U" unicode="U" horiz-adv-x="800" 
d="M405 -10q-260 0 -260 270v400q0 60 -21 75t-104 15v30h350v-30q-90 0 -112.5 -15t-22.5 -75v-400q0 -230 196 -230q57 0 97 17t61 48.5t30 69t9 85.5v410q0 60 -21 75t-100 15v30h274v-30q-79 0 -99 -15t-20 -75v-390q0 -133 -57.5 -206.5t-199.5 -73.5z" />
    <glyph glyph-name="V" unicode="V" horiz-adv-x="800" 
d="M500 780h270v-30q-62 0 -81.5 -11t-36.5 -59l-241 -690h-30l-260 710q-12 33 -29.5 41.5t-71.5 8.5v30h321v-30q-73 0 -99.5 -6t-26.5 -25q0 -11 6 -29l201 -568l188 558q7 23 7 32q0 25 -24.5 31.5t-92.5 6.5v30z" />
    <glyph glyph-name="W" unicode="W" horiz-adv-x="1000" 
d="M301 -10l-220 710q-10 33 -28 41.5t-73 8.5v30h321v-30q-63 0 -91 -7.5t-28 -31.5q0 -9 3 -21l158 -550l127 465l-29 95q-11 34 -26 42t-75 8v30h321v-30q-64 0 -91.5 -7.5t-27.5 -32.5q0 -10 3 -20l160 -550l146 540q4 13 4 26q0 16 -7.5 25t-26.5 13t-37 5t-53 1v30
h289v-30q-70 0 -91 -10.5t-36 -59.5l-202 -690h-30l-170 548l-160 -548h-30z" />
    <glyph glyph-name="X" unicode="X" horiz-adv-x="800" 
d="M266 690l144 -225l150 215q17 26 17 36q0 20 -25 27t-82 7v30h280v-30q-62 0 -91 -13.5t-59 -56.5l-170 -247l226 -353q18 -29 45.5 -39.5t78.5 -10.5v-30h-319v30q50 0 73.5 6t23.5 23q0 11 -12 31l-170 265l-168 -245q-16 -22 -16 -41q0 -39 108 -39v-30h-280v30
q49 0 79 16t64 64l193 277l-201 314q-20 31 -44 40t-71 9v30h321v-30q-61 0 -84.5 -5t-23.5 -24q0 -10 13 -31z" />
    <glyph glyph-name="Y" unicode="Y" horiz-adv-x="800" 
d="M590 30v-30h-360v30q90 0 112.5 15t22.5 75v181l-230 400q-18 31 -40 40t-75 9v30h321v-30q-62 0 -85.5 -4.5t-23.5 -19.5q0 -11 14 -36l195 -341l176 331q11 19 11 35q0 21 -29 28t-89 7v30h280v-30q-66 0 -85.5 -11.5t-44.5 -58.5l-205 -377v-183q0 -60 22.5 -75
t112.5 -15z" />
    <glyph glyph-name="Z" unicode="Z" 
d="M604 195l-64 -195h-510v30l418 646q18 28 18 42q0 32 -42 32h-134q-47 0 -83 -14t-61 -43t-39.5 -54.5t-32.5 -67.5l-28 14l64 195h489v-30l-416 -643q-17 -28 -17 -45q0 -18 17 -25t60 -7h87q47 0 84 9.5t60.5 24t44 40t32 48t25.5 57.5z" />
    <glyph glyph-name="a" unicode="a" 
d="M283 480q-11 0 -21 -1t-18 -4t-13.5 -4.5t-11.5 -7.5t-9 -8t-8 -10t-6.5 -10.5t-6.5 -12.5l-6 -12q-13 -24 -17.5 -32t-13.5 -20t-18.5 -15t-23.5 -3q-42 0 -42 40q0 46 64 88t156 42q86 0 144 -39.5t55 -125.5l-10 -236q-3 -69 33 -69q43 0 63 72l28 -12
q-22 -52 -49.5 -81t-68.5 -29q-42 0 -63.5 27t-21.5 68v27h-4q-12 -20 -22 -33t-34.5 -37.5t-61.5 -38t-82 -13.5q-74 0 -115 34.5t-41 95.5q0 43 17 74t49.5 49t69.5 27.5t89 14.5q75 7 105 28.5t30 66.5q0 38 -30 69t-85 31zM398 230v71q-11 -15 -43 -24l-123 -31
q-49 -12 -74 -40t-25 -81q0 -43 25 -64t66 -21q51 0 87.5 20.5t54 52.5t25 61t7.5 56z" />
    <glyph glyph-name="b" unicode="b" 
d="M100 0v668q0 22 -5 31t-18 9q-12 0 -38 -10l-20 -8l-10 30l165 70l10 -10l-4 -367h4q64 97 164 97q89 0 147.5 -71t58.5 -189q0 -116 -68 -188t-162 -72q-74 0 -114.5 33.5t-65.5 86.5h-4l-10 -110h-30zM184 122q11 -36 43 -64t81 -28q69 0 110 61t41 159
q0 93 -37.5 151.5t-105.5 58.5q-63 0 -97.5 -44t-34.5 -121v-173z" />
    <glyph glyph-name="c" unicode="c" horiz-adv-x="500" 
d="M290 40q117 0 152 152l28 -12q-3 -15 -9 -33.5t-22 -48t-37.5 -52t-57.5 -39.5t-79 -17q-106 0 -165.5 72t-59.5 188q0 113 61.5 186.5t158.5 73.5q50 0 88.5 -15.5t59.5 -39t31.5 -48t10.5 -46.5q0 -41 -40 -41q-26 0 -41 12t-19.5 24.5t-9.5 38.5q-9 43 -23.5 64
t-46.5 21q-65 0 -100 -64t-35 -166q0 -87 41.5 -148.5t113.5 -61.5z" />
    <glyph glyph-name="d" unicode="d" 
d="M580 30l-169 -40l-10 10l30 120h-4q-62 -130 -181 -130q-89 0 -147.5 71t-58.5 189q0 116 68 188t162 72q86 0 140 -67h4l-4 225q-1 23 -5.5 31.5t-17.5 8.5q-12 0 -38 -10l-20 -8l-10 30l165 70l10 -10v-690q0 -41 23 -41q16 0 38 5l25 6v-30zM278 40q56 0 88 34.5
t44 70.5v173q0 76 -35 114t-89 38q-69 0 -110 -61t-41 -159q0 -93 37.5 -151.5t105.5 -58.5z" />
    <glyph glyph-name="e" unicode="e" horiz-adv-x="500" 
d="M470 180q-3 -15 -9 -33.5t-22 -48t-37.5 -52t-57.5 -39.5t-79 -17q-101 0 -163 73t-62 187q0 113 61.5 186.5t158.5 73.5q103 0 152 -62.5t49 -167.5h-325q-1 -10 -1 -30q0 -87 41.5 -148.5t113.5 -61.5q117 0 152 152zM270 480q-55 0 -88.5 -46t-43.5 -124h232
q0 73 -25 121.5t-75 48.5z" />
    <glyph glyph-name="f" unicode="f" horiz-adv-x="300" 
d="M278 0h-260v30h27q38 0 49.5 11.5t11.5 48.5v380h-86v30h86l4 60q7 99 63.5 164.5t141.5 65.5q28 0 46.5 -13t18.5 -35q0 -26 -20.5 -39.5t-46.5 -5.5l-69 21q-25 8 -44 -12t-17 -61l7 -145h110v-30h-110v-380q0 -38 11 -49t49 -11h28v-30z" />
    <glyph glyph-name="g" unicode="g" 
d="M90 330q0 84 62 132t138 48q35 0 65 -10h245v-30h-183q73 -52 73 -140q0 -84 -62 -132t-138 -48q-88 0 -128.5 -9.5t-40.5 -35.5q0 -37 69 -37h200q86 0 128.5 -37.5t42.5 -100.5q0 -78 -78.5 -119t-191.5 -41q-32 0 -51 0.5t-53.5 3.5t-56 10.5t-44.5 19.5t-34.5 33
t-11.5 49q0 85 121 110q-52 8 -76.5 26t-24.5 52q0 42 35 63t104 33q-48 21 -78.5 62t-30.5 98zM175 325q0 -68 32 -106.5t78 -38.5q52 0 86 42.5t34 112.5q0 68 -31.5 106.5t-77.5 38.5q-53 0 -87 -42.5t-34 -112.5zM380 -10h-129q-126 0 -126 -90q0 -56 44 -78t122 -22
q99 0 154 27.5t55 82.5q0 80 -120 80z" />
    <glyph glyph-name="h" unicode="h" 
d="M280 0h-260v30h27q38 0 49.5 11.5t11.5 48.5v578q0 22 -5 31t-18 9q-12 0 -38 -10l-20 -8l-10 30l165 70l10 -10l-4 -382h4q87 112 182 112q60 0 94 -35t34 -105v-280q0 -38 11 -49t49 -11h25v-30h-260v30h30q38 0 49.5 11.5t11.5 48.5v262q0 88 -95 88
q-50 0 -90.5 -36.5t-40.5 -88.5v-225q0 -38 11 -49t49 -11h28v-30z" />
    <glyph glyph-name="i" unicode="i" horiz-adv-x="300" 
d="M74 685q0 30 20.5 50t49.5 20q30 0 50 -20t20 -50t-20 -50t-50 -20q-29 0 -49.5 20t-20.5 50zM280 0h-260v30h30q38 0 49.5 11.5t11.5 48.5v298q0 22 -5 31t-18 9q-12 0 -38 -10l-20 -8l-10 30l165 70l10 -10v-410q0 -38 11.5 -49t48.5 -11h25v-30z" />
    <glyph glyph-name="j" unicode="j" horiz-adv-x="300" 
d="M80 685q0 30 20.5 50t49.5 20q30 0 50 -20t20 -50t-20 -50t-50 -20q-29 0 -49.5 20t-20.5 50zM-1 -230q-36 0 -52.5 13.5t-16.5 31.5q0 28 20.5 42t45.5 6l65 -20q36 -11 45 18.5t9 123.5v403q0 22 -5 31t-18 9q-12 0 -38 -10l-20 -8l-10 30l165 70l10 -10v-480
q0 -104 -59.5 -177t-140.5 -73z" />
    <glyph glyph-name="k" unicode="k" 
d="M280 0h-260v30h27q38 0 49.5 11.5t11.5 48.5v578q0 22 -5 31t-18 9q-12 0 -38 -10l-20 -8l-10 30l165 70l10 -10v-544l184 169q32 30 32 47q0 18 -28 18h-40v30h230v-30h-30q-29 0 -49 -12t-60 -48l-3 -3t-2.5 -2t-3 -2.5l-2.5 -2.5l-102 -91l167 -229q20 -28 33.5 -39
t36.5 -11h30v-30h-240v30h20q40 0 40 16q0 11 -16 34l-125 177l-72 -64v-103q0 -38 11 -49t49 -11h28v-30z" />
    <glyph glyph-name="l" unicode="l" horiz-adv-x="300" 
d="M280 0h-260v30h27q38 0 49.5 11.5t11.5 48.5v578q0 22 -5 31t-18 9q-12 0 -38 -10l-20 -8l-10 30l165 70l10 -10v-690q0 -38 11 -49t49 -11h28v-30z" />
    <glyph glyph-name="m" unicode="m" horiz-adv-x="900" 
d="M269 0h-260v30h30q38 0 49.5 11.5t11.5 48.5v298q0 22 -5 31t-18 9q-12 0 -38 -10l-20 -8l-10 30l174 70l10 -10l-31 -130h4q95 140 200 140q52 0 83.5 -30t39.5 -86h4q88 116 183 116q60 0 94 -35t34 -105v-280q0 -38 11 -49t49 -11h25v-30h-260v30h30q38 0 49.5 11.5
t11.5 48.5v262q0 88 -95 88q-50 0 -90.5 -36.5t-40.5 -88.5v-225q0 -38 11 -49t49 -11h25v-30h-260v30h30q38 0 49.5 11.5t11.5 48.5v262q0 88 -95 88q-50 0 -90.5 -36.5t-40.5 -88.5v-225q0 -38 11 -49t49 -11h25v-30z" />
    <glyph glyph-name="n" unicode="n" 
d="M280 0h-260v30h30q38 0 49.5 11.5t11.5 48.5v298q0 22 -5 31t-18 9q-12 0 -38 -10l-20 -8l-10 30l174 70l10 -10l-31 -130h4q95 140 200 140q60 0 94 -35t34 -105v-280q0 -38 11.5 -49t48.5 -11h25v-30h-260v30h30q38 0 49.5 11.5t11.5 48.5v262q0 88 -95 88
q-50 0 -90.5 -36.5t-40.5 -88.5v-225q0 -38 11.5 -49t48.5 -11h25v-30z" />
    <glyph glyph-name="o" unicode="o" 
d="M40 250q0 113 72.5 186.5t187.5 73.5q121 0 190.5 -72.5t69.5 -187.5q0 -113 -72.5 -186.5t-187.5 -73.5q-121 0 -190.5 72.5t-69.5 187.5zM140 245q0 -101 39.5 -163t115.5 -62q75 0 120 70t45 165q0 102 -39.5 163.5t-114.5 61.5q-76 0 -121 -69.5t-45 -165.5z" />
    <glyph glyph-name="p" unicode="p" 
d="M330 -10q-93 0 -140 66h-4l4 -186q1 -38 12 -49t48 -11h30v-30h-260v30h25q38 0 49.5 11.5t11.5 48.5v518q0 22 -5 31t-18 9q-12 0 -38 -10l-20 -8l-10 30l174 70l10 -10l-33 -110h4q13 23 32.5 46.5t62 48.5t89.5 25q89 0 147.5 -71t58.5 -189q0 -116 -68 -188t-162 -72
zM190 295v-173q11 -36 43 -64t81 -28q69 0 110 61t41 159q0 93 -37.5 151.5t-105.5 58.5q-63 0 -97.5 -44t-34.5 -121z" />
    <glyph glyph-name="q" unicode="q" 
d="M269 510q32 0 59 -9.5t43 -20t34 -33t24.5 -33t21.5 -36.5h4l8 122h30v-630q0 -38 11.5 -49t48.5 -11h27v-30h-260v30h28q37 0 48.5 11t12.5 49l4 217h-4q-64 -97 -164 -97q-89 0 -147.5 71t-58.5 189q0 116 68 188t162 72zM134 250q0 -93 37.5 -151.5t105.5 -58.5
q56 0 88 34.5t44 70.5v173q0 76 -35 114t-89 38q-69 0 -110 -61t-41 -159z" />
    <glyph glyph-name="r" unicode="r" horiz-adv-x="400" 
d="M291 0h-271v30h30q38 0 49.5 11.5t11.5 48.5v298q0 22 -5 31t-18 9q-12 0 -38 -10l-20 -8l-10 30l174 70l10 -10l-33 -140h4q43 60 94 105t93 45q21 0 34.5 -11.5t13.5 -28.5q0 -22 -12.5 -38.5t-37.5 -16.5h-42q-56 0 -89.5 -28t-33.5 -87v-210q0 -38 11.5 -49t48.5 -11
h36v-30z" />
    <glyph glyph-name="s" unicode="s" horiz-adv-x="500" 
d="M407 316q-6 11 -18 29.5t-38.5 50t-65.5 53t-80 21.5q-80 0 -80 -62q0 -40 34 -62t106 -44q28 -9 39.5 -12.5t37 -13.5t37 -17.5t29.5 -21t26 -28t14.5 -35t6.5 -44.5q0 -62 -41.5 -101t-113.5 -39q-40 0 -71 11t-49 22t-26 11q-10 0 -49 -44h-10l-61 200l28 14
q5 -10 12.5 -22.5t29.5 -42t46.5 -51.5t62.5 -40t77 -18q45 0 70.5 20.5t25.5 54.5q0 44 -31 65.5t-110 47.5q-45 15 -74 27.5t-58.5 32t-43.5 46t-14 60.5q0 56 35.5 91t99.5 35q43 0 78.5 -16t43.5 -16q17 0 49 32h10l64 -180z" />
    <glyph glyph-name="t" unicode="t" horiz-adv-x="400" 
d="M0 470v30h30q56 0 95.5 50.5t39.5 180.5h30v-231h196v-30h-196v-300q0 -130 89 -130q50 0 79.5 44t38.5 111l28 -14q-5 -29 -14 -56t-27 -60.5t-51.5 -54t-77.5 -20.5q-70 0 -109.5 43t-39.5 127v310h-111z" />
    <glyph glyph-name="u" unicode="u" 
d="M15 500h169v-352q0 -88 95 -88q50 0 90.5 36.5t40.5 88.5v225q0 38 -11 49t-49 11h-25v30h169v-410q0 -41 23 -41q16 0 38 5l25 6v-30l-169 -40l-10 10l31 130h-4q-95 -140 -200 -140q-60 0 -94 35t-34 105v280q0 38 -11 49t-49 11h-25v30z" />
    <glyph glyph-name="v" unicode="v" horiz-adv-x="500" 
d="M415 400l-160 -415h-5l-175 435q-13 33 -28 41.5t-57 8.5v30h240v-30h-26q-41 0 -41 -24q0 -11 6 -26l107 -288l95 253q12 31 12 51q0 34 -48 34h-45v30h230v-30h-28q-29 0 -45.5 -16t-31.5 -54z" />
    <glyph glyph-name="w" unicode="w" horiz-adv-x="700" 
d="M225 -15h-8l-166 435q-11 30 -19 40t-26 10h-16v30h206v-30h-20q-36 0 -36 -27q0 -8 5 -23l103 -287l77 224l-24 63q-13 34 -21.5 42t-33.5 8v30h210v-30h-40q-28 0 -28 -22q0 -10 7 -28l102 -288l87 263q9 27 9 42q0 33 -43 33h-26v30h186v-30h-16q-27 0 -41.5 -14.5
t-28.5 -55.5l-149 -415h-8l-123 323z" />
    <glyph glyph-name="x" unicode="x" 
d="M201 100q-28 -35 -28 -49q0 -21 38 -21h44v-30h-225v30q47 0 66.5 10t59.5 60l113 143l-129 177q-23 30 -41.5 40t-58.5 10v30h250v-30h-30q-41 0 -41 -18q0 -9 18 -32l80 -110l71 90q26 34 26 46q0 24 -36 24h-38v30h230v-30q-50 0 -76 -11.5t-63 -58.5l-93 -120
l146 -200q23 -31 40 -40.5t56 -9.5v-30h-240v30h30q33 0 33 20q0 9 -15 30l-97 133z" />
    <glyph glyph-name="y" unicode="y" horiz-adv-x="500" 
d="M415 400l-187 -485q-56 -145 -193 -145q-66 0 -66 46q0 27 20.5 41t45.5 6l72 -22q54 -16 89 79l38 104l-159 396q-13 33 -28 41.5t-57 8.5v30h246v-30h-32q-41 0 -41 -23q0 -11 6 -27l107 -288l95 253q12 31 12 51q0 34 -48 34h-45v30h230v-30h-28q-29 0 -45.5 -16
t-31.5 -54z" />
    <glyph glyph-name="z" unicode="z" horiz-adv-x="500" 
d="M460 480l-291 -420q-5 -8 -6.5 -14.5t2.5 -11t14 -4.5h71q39 0 70.5 12.5t50.5 28.5t35.5 43t24 45t16.5 45l28 -14l-60 -200h-10l-40 10h-325v20l296 420q8 10 5.5 20t-16.5 10h-55q-42 0 -74 -12.5t-54.5 -38t-35 -47t-28.5 -56.5l-28 14l60 180h10l40 -10h300v-20z
" />
    <glyph glyph-name="Agrave" unicode="&#xc0;" horiz-adv-x="800" 
d="M280 1021h100l90 -190h-30zM280 0h-280v30q64 0 87.5 11.5t41.5 58.5l246 660l45 30h10l250 -710q11 -31 39 -40.5t81 -9.5v-30h-320v30q63 0 85.5 7t22.5 31q0 9 -5 22l-66 190h-281l-64 -180q-8 -24 -8 -38q0 -18 26 -25t90 -7v-30zM247 310h260l-128 369z" />
    <glyph glyph-name="Egrave" unicode="&#xc8;" horiz-adv-x="700" 
d="M230 1020h100l90 -190h-30zM20 30q90 0 112.5 15t22.5 75v540q0 60 -22.5 75t-112.5 15v30h581l64 -195l-28 -19q-15 36 -27 59.5t-37 56.5t-61 50.5t-82 17.5h-50q-90 0 -112.5 -15t-22.5 -75v-250h135q66 0 93 25.5t27 109.5h30v-319h-30q0 67 -14.5 101.5t-37.5 43.5
t-68 9h-135v-260q0 -60 22.5 -75t112.5 -15h40q98 0 154.5 41t92.5 138l28 -14l-64 -195h-611v30z" />
    <glyph glyph-name="Eacute" unicode="&#xc9;" horiz-adv-x="700" 
d="M490 1020l-160 -190h-30l90 190h100zM20 30q90 0 112.5 15t22.5 75v540q0 60 -22.5 75t-112.5 15v30h581l64 -195l-28 -19q-15 36 -27 59.5t-37 56.5t-61 50.5t-82 17.5h-50q-90 0 -112.5 -15t-22.5 -75v-250h135q66 0 93 25.5t27 109.5h30v-319h-30q0 67 -14.5 101.5
t-37.5 43.5t-68 9h-135v-260q0 -60 22.5 -75t112.5 -15h40q98 0 154.5 41t92.5 138l28 -14l-64 -195h-611v30z" />
    <glyph glyph-name="Ograve" unicode="&#xd2;" horiz-adv-x="800" 
d="M284 1020h100l90 -190h-30zM40 391q0 174 98.5 286.5t261.5 112.5t261.5 -112.5t98.5 -286.5q0 -176 -98.5 -288.5t-261.5 -112.5t-261.5 112.5t-98.5 288.5zM149 391q0 -78 15 -143.5t45.5 -117t82 -81t118.5 -29.5q113 0 177 104t64 267q0 104 -26 185t-86 132.5
t-149 51.5q-112 0 -176.5 -106t-64.5 -263z" />
    <glyph glyph-name="Ugrave" unicode="&#xd9;" horiz-adv-x="800" 
d="M280 1020h100l90 -190h-30zM405 -10q-260 0 -260 270v400q0 60 -21 75t-104 15v30h350v-30q-90 0 -112.5 -15t-22.5 -75v-400q0 -230 196 -230q57 0 97 17t61 48.5t30 69t9 85.5v410q0 60 -21 75t-100 15v30h274v-30q-79 0 -99 -15t-20 -75v-390q0 -133 -57.5 -206.5
t-199.5 -73.5z" />
    <glyph glyph-name="agrave" unicode="&#xe0;" 
d="M166 780h100l90 -190h-30zM283 480q-11 0 -21 -1t-18 -4t-13.5 -4.5t-11.5 -7.5t-9 -8t-8 -10t-6.5 -10.5t-6.5 -12.5l-6 -12q-13 -24 -17.5 -32t-13.5 -20t-18.5 -15t-23.5 -3q-42 0 -42 40q0 46 64 88t156 42q86 0 144 -39.5t55 -125.5l-10 -236q-3 -69 33 -69
q43 0 63 72l28 -12q-22 -52 -49.5 -81t-68.5 -29q-42 0 -63.5 27t-21.5 68v27h-4q-12 -20 -22 -33t-34.5 -37.5t-61.5 -38t-82 -13.5q-74 0 -115 34.5t-41 95.5q0 43 17 74t49.5 49t69.5 27.5t89 14.5q75 7 105 28.5t30 66.5q0 38 -30 69t-85 31zM398 230v71
q-11 -15 -43 -24l-123 -31q-49 -12 -74 -40t-25 -81q0 -43 25 -64t66 -21q51 0 87.5 20.5t54 52.5t25 61t7.5 56z" />
    <glyph glyph-name="egrave" unicode="&#xe8;" horiz-adv-x="500" 
d="M150 780h100l90 -190h-30zM470 180q-3 -15 -9 -33.5t-22 -48t-37.5 -52t-57.5 -39.5t-79 -17q-101 0 -163 73t-62 187q0 113 61.5 186.5t158.5 73.5q103 0 152 -62.5t49 -167.5h-325q-1 -10 -1 -30q0 -87 41.5 -148.5t113.5 -61.5q117 0 152 152zM270 480
q-55 0 -88.5 -46t-43.5 -124h232q0 73 -25 121.5t-75 48.5z" />
    <glyph glyph-name="eacute" unicode="&#xe9;" horiz-adv-x="500" 
d="M410 780l-160 -190h-30l90 190h100zM470 180q-3 -15 -9 -33.5t-22 -48t-37.5 -52t-57.5 -39.5t-79 -17q-101 0 -163 73t-62 187q0 113 61.5 186.5t158.5 73.5q103 0 152 -62.5t49 -167.5h-325q-1 -10 -1 -30q0 -87 41.5 -148.5t113.5 -61.5q117 0 152 152zM270 480
q-55 0 -88.5 -46t-43.5 -124h232q0 73 -25 121.5t-75 48.5z" />
    <glyph glyph-name="ograve" unicode="&#xf2;" 
d="M180 780h100l90 -190h-30zM40 250q0 113 72.5 186.5t187.5 73.5q121 0 190.5 -72.5t69.5 -187.5q0 -113 -72.5 -186.5t-187.5 -73.5q-121 0 -190.5 72.5t-69.5 187.5zM140 245q0 -101 39.5 -163t115.5 -62q75 0 120 70t45 165q0 102 -39.5 163.5t-114.5 61.5
q-76 0 -121 -69.5t-45 -165.5z" />
    <glyph glyph-name="ugrave" unicode="&#xf9;" 
d="M170 780h100l90 -190h-30zM15 500h169v-352q0 -88 95 -88q50 0 90.5 36.5t40.5 88.5v225q0 38 -11 49t-49 11h-25v30h169v-410q0 -41 23 -41q16 0 38 5l25 6v-30l-169 -40l-10 10l31 130h-4q-95 -140 -200 -140q-60 0 -94 35t-34 105v280q0 38 -11 49t-49 11h-25v30z" />
    <glyph glyph-name="quoteleft" unicode="&#x2018;" horiz-adv-x="300" 
d="M205 580q0 -30 -20.5 -50t-49.5 -20q-30 0 -50 20t-20 50q0 21 20 52l115 170h60l-141 -160h30q24 0 40 -17.5t16 -44.5z" />
    <glyph glyph-name="quoteright" unicode="&#x2019;" horiz-adv-x="300" 
d="M80 730q0 30 20.5 50t49.5 20q30 0 50 -20t20 -50q0 -21 -20 -52l-115 -170h-60l141 160h-30q-24 0 -40 17.5t-16 44.5z" />
    </font>
</defs>
</svg>
